# xmcd
#
# Track frame offsets: 
#        150
#        20127
#        32375
#        50595
#        64335
#        78857
#        94690
#        112507
#        128430
#        139905
#        159452
#        179382
#        193507
#        213217
#        234667
#        251015
#        271807
#
# Disc length: 3877 seconds
#
# Revision: 4
# Processed by: cddbd v1.4PL0 Copyright (c) Steve Scherf et al.
# Submitted via: ExactAudioCopy v0.90a11
#
DISCID=dc0f2311
DTITLE=Gary Morris - Live
DYEAR=1900
DGENRE=
TTITLE0=Live
TTITLE1=My Finest Hour
TTITLE2=Draggin' The Lake For The Moon
TTITLE3=These Days
TTITLE4=Bread And Water
TTITLE5=How Did I Get Here
TTITLE6=Bear Joke
TTITLE7=Nothin' But The Blues
TTITLE8=How Great Thou Art
TTITLE9=South December Road
TTITLE10=Leave Me Lonely
TTITLE11=Plain Brown Wrapper
TTITLE12=Bed Of Roses
TTITLE13=Wind Beneath My Wings
TTITLE14=Bring Him Home
TTITLE15=Amazing Grace
TTITLE16=Live (2)
EXTD=
EXTT0=
EXTT1=
EXTT2=
EXTT3=
EXTT4=
EXTT5=
EXTT6=
EXTT7=
EXTT8=
EXTT9=
EXTT10=
EXTT11=
EXTT12=
EXTT13=
EXTT14=
EXTT15=
EXTT16=
PLAYORDER=
